# xmcd CD database file
# Copyright (C) 1997 Ti Kan
# 
# Track frame offsets:
#     150
#     18630
#     33525
#     46375
#     57447
#     68352
#     88107
#     99792
#     110297
#     124312
#     134062
#     156605
#     174312
#     191690
#     204027
#     213367
#     225232
#     234970
#     246777
#     259742
#     279147
#     291992
#     308642
#     333565
# 
# Disc length: 4577 seconds
# 
# Revision: 1
# Processed by: cddbd v1.4b41PL1 Copyright (c) Steve Scherf et al.
# Submitted via: DiscPlay 4.0.3
# 
DISCID=5011df18
DTITLE=Artistas Varios - Levi's Midnight Blues
DYEAR=1900
DGENRE=
TTITLE0=John Lee Hooker: Della Mae
TTITLE1=Big Mama Thorton: Hound Dog
TTITLE2=T-Bone Walker: Stormy Monday Blues
TTITLE3=Bo Diddley: Diddy Wah Diddy
TTITLE4=Muddy Waters: Key To The Highway
TTITLE5=Howlin' Wolf: Wang Dang Doodle
TTITLE6=Willie Dixon and Menphis Slim: Crazy For My Baby
TTITLE7=Canned Heat: Dimple
TTITLE8=Bo Diddley: You Can't Judge A Book By The Cover
TTITLE9=John Mayal: I'm Your Witch Doctor
TTITLE10=Soony Boy Williamson: Boom Boom
TTITLE11=Muddy Waters: Manish Boy
TTITLE12=Howlin' Wolf: Red Rooster
TTITLE13=Johnny Winter: Good Morning Little Schoolgirl
TTITLE14=Canned Heat: Rollin' and Tumblin
TTITLE15=All Stars and Jeff Beck: Steelin
TTITLE16=Eric Clapton: Tribute to Elmore
TTITLE17=Yardbirds: I'm A Man
TTITLE18=Fleetwood Mac: Black Magic Woman
TTITLE19=Yardbirds: New York City
TTITLE20=Muddy Waters: Hoochie Coochie Man
TTITLE21=Koko Taylor: What Kind Of Man Is This
TTITLE22=Screamin' Jay Hawkings: Constipation Blues
TTITLE23=Chuck Berry: Worried Life Blues
EXTD=Compilaci n Especial Producida por Levis con temas seleccionados por Bo
EXTD=bby Flores
EXTT0=
EXTT1=
EXTT2=
EXTT3=
EXTT4=
EXTT5=
EXTT6=
EXTT7=
EXTT8=
EXTT9=
EXTT10=
EXTT11=
EXTT12=
EXTT13=
EXTT14=
EXTT15=
EXTT16=
EXTT17=
EXTT18=
EXTT19=
EXTT20=
EXTT21=
EXTT22=
EXTT23=
PLAYORDER=
